<?xml version="1.0" standalone="no"?>
<!DOCTYPE svg PUBLIC "-//W3C//DTD SVG 20010904//EN"
 "http://www.w3.org/TR/2001/REC-SVG-20010904/DTD/svg10.dtd">
<svg version="1.0" xmlns="http://www.w3.org/2000/svg"
 width="200.000000pt" height="200.000000pt" viewBox="0 0 200.000000 200.000000"
 preserveAspectRatio="xMidYMid meet">

<g transform="translate(0.000000,200.000000) scale(0.100000,-0.100000)"
fill="#000000" stroke="none">
<path d="M1010 1677 c0 -37 59 -136 81 -137 16 0 -31 100 -62 134 -17 18 -19
18 -19 3z"/>
<path d="M997 1617 c-2 -6 6 -20 19 -30 27 -20 29 -18 12 18 -12 27 -23 32
-31 12z"/>
<path d="M941 1578 c-15 -40 -17 -61 -6 -64 14 -5 36 68 25 80 -6 6 -13 -1
-19 -16z"/>
<path d="M976 1563 c-8 -19 -8 -57 0 -77 5 -12 21 -16 75 -16 l69 0 0 -45 0
-45 -70 0 c-56 0 -70 -3 -70 -15 0 -12 12 -15 58 -13 l57 3 3 -37 3 -37 -58
-3 c-44 -2 -58 -7 -58 -18 0 -12 15 -16 68 -18 l67 -3 0 -39 0 -40 -110 0
c-60 0 -110 3 -110 8 0 4 -7 70 -15 147 -7 77 -12 141 -11 143 2 1 22 4 45 6
23 2 45 6 49 11 4 4 -18 5 -48 1 -30 -4 -58 -13 -63 -19 -7 -9 -10 -9 -14 1
-2 6 -9 12 -15 12 -7 0 -6 -5 1 -14 9 -11 34 -294 27 -303 0 0 -19 -3 -41 -5
l-40 -3 -6 53 c-4 29 -9 55 -10 56 -2 2 -21 1 -43 -2 l-38 -4 6 -55 c7 -59 5
-61 -53 -65 l-34 -3 -28 140 c-15 77 -28 145 -28 151 -1 15 14 20 73 29 l46 7
0 -55 c0 -31 3 -58 8 -60 4 -2 24 -2 46 1 l38 4 -7 54 c-6 52 -6 53 22 57 28
4 28 4 -2 3 -29 -1 -30 -3 -30 -46 0 -51 -15 -68 -25 -29 -11 41 -41 79 -61
79 -10 0 -41 -5 -70 -11 l-52 -11 6 -47 c4 -25 9 -63 13 -83 6 -34 4 -39 -20
-49 -23 -11 -28 -10 -41 7 -14 18 -15 17 -9 -8 6 -26 4 -28 -25 -28 -33 0 -37
9 -21 40 7 13 7 21 0 25 -5 3 -10 13 -10 21 0 13 3 13 22 0 32 -22 35 -20 40
19 5 41 6 40 -33 19 -17 -8 -32 -14 -34 -12 -1 2 0 18 2 36 4 26 9 31 24 27
24 -8 24 3 0 34 -19 25 -47 21 -36 -6 5 -15 -20 -53 -36 -53 -4 0 -15 7 -23
16 -25 25 -30 -4 -12 -72 17 -66 53 -104 98 -104 22 0 31 -7 42 -34 8 -19 23
-39 34 -45 28 -15 37 -14 22 4 -6 8 -10 20 -8 27 3 8 11 1 21 -17 23 -43 21
-26 -4 30 -17 39 -19 49 -8 56 24 15 27 10 40 -66 6 -41 16 -75 22 -75 5 0 4
-7 -4 -16 -12 -14 -14 -14 -21 5 -6 18 -16 21 -67 21 -73 0 -82 -8 -111 -97
-13 -38 -24 -69 -26 -71 -1 -2 -12 6 -24 18 -22 22 -65 24 -65 3 0 -6 -3 -15
-8 -19 -4 -4 -7 -25 -7 -46 0 -21 -3 -37 -7 -37 -5 1 -10 0 -13 -1 -15 -6 -60
-5 -60 2 0 3 5 19 10 34 9 24 9 25 -5 14 -10 -8 -15 -30 -15 -65 0 -48 4 -56
40 -94 45 -46 48 -60 20 -86 -24 -22 -26 -48 -3 -66 18 -15 18 -16 -3 36 -5
12 4 15 46 15 38 0 51 3 47 13 -36 81 -58 140 -54 150 2 6 12 -11 22 -38 25
-65 60 -127 83 -149 18 -15 20 -15 44 3 19 15 28 17 36 9 17 -17 192 -14 192
3 0 3 -9 14 -20 24 -28 26 -25 30 19 30 22 0 37 -3 35 -7 -2 -4 1 -10 6 -13 7
-5 5 -11 -6 -19 -15 -12 -15 -14 6 -34 19 -18 32 -20 81 -17 39 3 59 1 59 -6
0 -6 7 -9 14 -6 10 4 13 1 10 -7 -3 -8 7 -18 26 -26 42 -18 46 -28 16 -51 -14
-11 -26 -24 -26 -28 0 -4 18 -16 40 -26 22 -10 40 -24 40 -32 0 -7 5 -13 11
-13 6 0 9 -7 5 -15 -4 -11 2 -15 22 -16 l27 -1 -25 -7 c-17 -5 -26 -15 -28
-33 -3 -23 1 -27 30 -30 l33 -4 -32 -13 c-20 -8 -33 -20 -33 -31 0 -36 80 -42
104 -8 18 25 21 68 6 68 -5 0 -7 6 -4 14 3 8 -2 16 -13 19 -16 4 -15 6 5 12
12 4 22 13 22 21 0 8 -6 11 -17 7 -12 -4 -8 4 11 25 16 18 37 34 47 37 26 9
32 35 12 57 -17 19 -16 20 7 39 14 10 33 21 43 25 9 3 17 11 17 18 0 21 222
52 258 37 21 -9 46 -9 91 -2 47 8 68 7 82 -2 30 -19 51 2 83 84 45 117 46 118
39 69 -3 -25 -14 -62 -24 -82 -11 -21 -19 -40 -19 -43 0 -3 20 -5 44 -5 48 0
47 -2 63 95 l8 50 5 -45 5 -45 28 46 c31 52 35 105 11 150 -14 28 -18 30 -52
24 -47 -8 -66 -25 -29 -25 30 0 36 -14 11 -24 -31 -12 -43 -5 -49 27 -4 17 -5
35 -3 38 6 11 -25 39 -43 39 -16 0 -19 8 -19 60 0 54 -2 60 -22 64 -43 10
-118 11 -118 3 0 -8 -73 -1 -112 10 -13 3 -18 -2 -18 -17 0 -16 -4 -20 -16
-16 -9 3 -18 6 -20 6 -2 0 -4 4 -4 8 0 10 64 41 95 47 11 2 22 4 23 4 2 1 -19
30 -47 66 -28 35 -51 68 -51 72 1 5 23 26 50 48 28 22 50 42 49 45 0 7 -86 70
-96 70 -4 0 -21 -14 -39 -31 l-32 -31 -31 56 -32 55 -64 -29 c-61 -28 -65 -28
-65 -10 0 13 -7 20 -20 20 -13 0 -20 7 -20 20 0 11 -4 20 -10 20 -5 0 -10 -9
-10 -20 0 -11 -4 -20 -10 -20 -5 0 -10 12 -10 28 -1 34 -64 81 -74 55z m311
-137 l26 -55 40 34 c42 37 48 36 97 -6 l24 -21 -52 -45 -52 -45 45 -64 45 -63
-46 -20 c-26 -12 -48 -21 -50 -21 -2 0 -18 23 -36 51 l-31 52 -35 -38 c-36
-40 -42 -40 -97 1 -18 14 -17 16 28 62 26 26 47 52 47 57 0 6 -20 36 -45 67
-25 32 -45 60 -45 63 0 7 80 43 98 44 7 1 24 -23 39 -53z m-905 -83 c7 -16 18
-35 25 -44 15 -18 7 -49 -12 -49 -23 0 -28 21 -9 36 18 13 17 14 -7 8 -24 -5
-27 -2 -37 35 -9 37 -8 41 9 41 12 0 24 -11 31 -27z m779 -42 l26 -37 -23 -27
c-29 -33 -34 -34 -34 -2 0 14 -4 25 -10 25 -11 0 -14 63 -3 73 11 12 17 7 44
-32z m-401 -141 c0 -34 31 -60 63 -52 22 5 22 5 -2 -21 l-23 -26 -24 28 c-25
30 -47 120 -26 107 7 -4 12 -20 12 -36z m508 -33 c2 -9 -2 -17 -9 -17 -7 0
-23 -10 -36 -22 -30 -28 -30 -5 0 32 24 31 40 33 45 7z m-113 3 c3 -5 -3 -10
-14 -10 -12 0 -21 5 -21 10 0 6 6 10 14 10 8 0 18 -4 21 -10z m-176 -19 c7 -5
12 -14 9 -21 -2 -7 -10 -4 -22 9 -19 21 -12 28 13 12z m126 -31 c0 -17 -5 -30
-12 -30 -8 0 -13 14 -13 35 0 23 4 33 13 30 6 -3 12 -19 12 -35z m-181 10 c17
0 66 -49 66 -66 0 -21 -47 -29 -65 -10 -22 22 -48 20 -70 -4 -42 -46 27 -108
73 -67 12 10 24 12 40 6 30 -11 28 -22 -9 -53 -70 -60 -179 -12 -179 79 0 60
74 135 118 120 8 -3 19 -5 26 -5z m-385 -99 c17 -54 31 -104 31 -110 0 -6 -13
-11 -29 -11 -21 0 -32 6 -36 20 -4 14 -15 20 -35 20 -24 0 -29 -5 -32 -27 -2
-22 -9 -29 -31 -31 -55 -7 -57 0 -28 85 16 43 33 95 40 116 12 34 16 37 50 37
l38 0 32 -99z m201 74 c22 -20 28 -93 9 -112 -9 -9 -6 -21 10 -49 25 -41 25
-39 -12 -48 -24 -6 -29 -2 -44 29 -19 41 -43 46 -43 10 0 -22 -4 -25 -35 -25
l-35 0 0 98 c0 54 4 102 10 108 17 17 117 10 140 -11z m330 -15 c0 -36 3 -40
25 -40 23 0 25 4 25 40 0 39 1 40 35 40 l35 0 0 -110 0 -110 -30 0 c-28 0 -30
2 -30 40 0 38 -2 40 -30 40 -30 0 -30 0 -30 -56 l0 -55 -32 3 -33 3 -3 123 -3
122 36 0 c34 0 35 -1 35 -40z m336 6 c28 -28 34 -42 34 -76 0 -34 -6 -48 -34
-76 -29 -29 -41 -34 -79 -34 -36 0 -51 6 -75 28 -78 73 -36 184 72 190 43 2
51 -1 82 -32z m155 -13 l34 -48 3 48 c3 47 3 47 39 47 l36 0 -7 -61 c-3 -34
-6 -84 -6 -110 0 -47 -1 -49 -28 -49 -22 0 -36 10 -63 46 l-34 46 -9 -55 c-8
-51 -11 -56 -38 -59 -16 -3 -31 -1 -34 4 -3 5 -2 60 2 123 l7 115 32 0 c26 0
37 -8 66 -47z m-646 -36 c21 -16 12 -37 -15 -37 -24 0 -46 36 -27 43 19 8 22
8 42 -6z m-580 -77 c15 -17 17 -26 8 -54 l-10 -34 55 -6 c48 -6 61 -3 84 14
15 11 28 16 28 11 0 -5 40 -10 90 -10 59 -1 90 3 90 10 0 6 8 2 18 -10 15 -18
22 -20 62 -10 24 5 48 15 52 22 5 9 10 9 20 -1 17 -17 99 -15 125 3 20 14 22
14 25 -7 3 -20 9 -23 53 -23 l50 0 0 47 c0 25 3 50 8 54 4 4 7 -4 7 -17 0 -60
9 -70 59 -67 l46 3 -3 38 -3 38 39 -38 c21 -21 34 -41 30 -44 -5 -3 17 -4 49
-1 32 2 62 8 67 12 5 5 21 0 36 -11 19 -15 39 -19 71 -17 42 3 44 5 49 37 l5
34 32 -27 c24 -20 41 -26 65 -24 32 3 33 5 36 51 2 32 7 47 17 47 22 0 33 -30
32 -86 l-1 -51 -210 -6 c-116 -2 -219 -8 -229 -12 -14 -6 -20 -2 -24 14 -7 26
-15 26 -37 2 -10 -11 -31 -25 -47 -31 -29 -12 -33 -20 -29 -50 1 -12 -2 -12
-16 2 -14 14 -15 20 -4 32 15 19 11 19 -65 2 -51 -13 -69 -13 -120 -1 -120 28
-284 46 -470 50 l-190 5 -3 51 c-2 29 -1 58 2 65 8 20 30 17 51 -6z m182 -136
c-3 -3 -12 -4 -19 -1 -8 3 -5 6 6 6 11 1 17 -2 13 -5z m183 -14 c32 -6 18 -7
-45 -3 -49 3 -92 7 -94 9 -8 7 94 3 139 -6z m733 3 c-13 -2 -33 -2 -45 0 -13
2 -3 4 22 4 25 0 35 -2 23 -4z m-115 -10 c-10 -2 -28 -2 -40 0 -13 2 -5 4 17
4 22 1 32 -1 23 -4z m-918 -127 c0 -11 -19 -15 -25 -6 -3 5 1 10 9 10 9 0 16
-2 16 -4z m736 -59 c-40 -25 -66 -57 -67 -84 0 -15 -3 -23 -5 -17 -3 7 -15 10
-27 7 l-22 -5 23 20 c12 11 22 31 22 45 0 20 7 27 38 35 50 13 61 13 38 -1z
m-198 -7 c6 0 12 -11 12 -24 0 -16 11 -32 29 -46 20 -13 28 -27 26 -40 -5 -24
0 -24 55 -5 24 8 45 13 47 11 2 -2 -19 -18 -47 -36 l-50 -32 -44 26 c-46 27
-78 59 -38 37 26 -14 43 -14 20 0 -12 6 -18 22 -18 44 0 24 -7 39 -27 55 l-28
21 25 -5 c14 -3 31 -6 38 -6z"/>
<path d="M460 990 c0 -11 5 -20 10 -20 6 0 10 9 10 20 0 11 -4 20 -10 20 -5 0
-10 -9 -10 -20z"/>
<path d="M643 994 c-8 -21 10 -36 38 -32 16 2 24 10 24 22 0 24 -53 32 -62 10z"/>
<path d="M1284 1005 c-15 -23 -15 -27 0 -51 24 -36 76 -31 90 8 20 57 -57 93
-90 43z m56 2 c0 -17 -20 -37 -37 -37 -16 0 -17 22 -1 38 16 16 38 15 38 -1z"/>
<path d="M430 1376 c0 -9 5 -16 10 -16 6 0 10 4 10 9 0 6 -4 13 -10 16 -5 3
-10 -1 -10 -9z"/>
<path d="M1485 1300 c-10 -11 -24 -20 -32 -20 -7 0 -13 -11 -13 -26 l0 -26 23
29 c41 51 50 63 45 63 -3 0 -13 -9 -23 -20z"/>
<path d="M1555 1248 c-4 -11 -18 -18 -34 -19 -26 0 -26 0 7 -17 39 -19 57 -8
43 29 -8 21 -10 22 -16 7z"/>
<path d="M1530 1160 c0 -19 3 -21 12 -12 9 9 9 15 0 24 -9 9 -12 7 -12 -12z"/>
<path d="M200 1080 c-14 -10 -21 -22 -17 -26 4 -4 14 1 21 12 15 19 15 19 30
-1 15 -20 15 -20 9 3 -8 31 -15 33 -43 12z"/>
<path d="M1792 1063 c-14 -46 -6 -58 9 -15 12 36 23 40 38 15 5 -10 13 -14 18
-10 8 8 -31 47 -46 47 -4 0 -13 -17 -19 -37z"/>
<path d="M1775 980 c3 -5 8 -10 11 -10 2 0 4 5 4 10 0 6 -5 10 -11 10 -5 0 -7
-4 -4 -10z"/>
<path d="M1808 943 c7 -3 16 -2 19 1 4 3 -2 6 -13 5 -11 0 -14 -3 -6 -6z"/>
<path d="M163 741 c0 -11 5 -18 9 -15 4 3 5 11 1 19 -7 21 -12 19 -10 -4z"/>
<path d="M204 705 c12 -28 26 -33 26 -10 0 8 -9 19 -19 24 -17 10 -18 9 -7
-14z"/>
<path d="M1762 614 c-7 -14 -8 -23 -2 -19 15 9 32 45 22 45 -5 0 -14 -12 -20
-26z"/>
<path d="M310 557 c0 -20 22 -37 47 -37 31 0 29 12 -6 33 -35 20 -41 21 -41 4z"/>
<path d="M1376 515 c13 -20 25 -25 56 -25 l39 0 -18 25 c-14 18 -27 24 -56 25
l-37 0 16 -25z"/>
</g>
</svg>
